<svg width="429.00000000000006" height="99.00000000000001" viewBox="0 0 390 90" class="css-1j8o68f"><defs id="SvgjsDefs1391"></defs><g id="SvgjsG1392" featurekey="2ou6gm-0" transform="matrix(1.4583333333333335,0,0,1.4583333333333335,20,20)" fill="#00adb5"><g xmlns="http://www.w3.org/2000/svg" transform="translate(0,-1004.3622)"><path style="" d="m 22.795762,1037.275 c -4.926108,0 -8.915964,-3.9896 -8.915964,-8.9135 0,-4.9186 3.989856,-8.9116 8.915964,-8.9116 2.454792,0 4.677984,0.9925 6.28584,2.6001 -1.994928,-2.855 -5.303268,-4.7209 -9.044988,-4.7209 -6.09396,0 -11.036616,4.9392 -11.036616,11.0324 0,6.0974 4.942656,11.034 11.036616,11.034 3.74172,0 7.05006,-1.8686 9.044988,-4.7183 -1.607856,1.6013 -3.831048,2.5978 -6.28584,2.5978" fill="#00adb5" fill-opacity="1" fill-rule="nonzero" stroke="none"></path><path style="" d="m 33.478378,1023.6319 2.057791,2.9696 3.463829,-1.0415 -2.190119,2.878 2.057785,2.9748 -3.410895,-1.1978 -2.190119,2.8777 0.0794,-3.6156 -3.410904,-1.1982 3.463836,-1.0314 0.07939,-3.6156" fill="#00adb5" fill-opacity="1" fill-rule="nonzero" stroke="none"></path><path style="color:;font-style:normal;font-variant:normal;font-weight:normal;font-stretch:normal;font-size:medium;line-height:normal;font-family:sans-serif;text-indent:0;text-align:start;text-decoration:none;text-decoration-line:none;text-decoration-style:solid;text-decoration-color:;letter-spacing:normal;word-spacing:normal;text-transform:none;direction:ltr;block-progression:tb;writing-mode:lr-tb;baseline-shift:baseline;text-anchor:start;white-space:normal;clip-rule:nonzero;display:inline;overflow:visible;visibility:visible;opacity:1;isolation:auto;mix-blend-mode:normal;color-interpolation:sRGB;color-interpolation-filters:linearRGB;solid-color:;solid-opacity:1;fill:#00adb5;fill-opacity:1;fill-rule:nonzero;stroke:none;stroke-width:15.99999905;stroke-linecap:butt;stroke-linejoin:miter;stroke-miterlimit:4;stroke-dasharray:none;stroke-dashoffset:0;stroke-opacity:1;color-rendering:auto;image-rendering:auto;shape-rendering:auto;text-rendering:auto;enable-background:accumulate" d="m 24,1052.3622 c -13.282162,0 -24,-10.7178 -24,-24 0,-13.2822 10.717838,-24 24,-24 13.282162,0 24,10.7178 24,24 0,13.2822 -10.717838,24 -24,24 z m 0,-1.6 c 12.423438,0 22.4,-9.9766 22.4,-22.4 0,-12.4234 -9.976562,-22.4 -22.4,-22.4 -12.423438,0 -22.4,9.9766 -22.4,22.4 0,12.4234 9.976562,22.4 22.4,22.4 z"></path></g></g><g id="SvgjsG1393" featurekey="kZnDdN-0" transform="matrix(2.4928778383107466,0,0,2.4928778383107466,108.00569844256947,22.641023080755645)" fill="#eeeeee"><path d="M10.24 6 l0 1.56 l-3.88 0 l0 12.44 l-1.66 0 l0 -12.44 l-3.9 0 l0 -1.56 l9.44 0 z M20.740000000000002 6 l1.66 0 l0 8.92 c0 3.44 -2.24 5.38 -5.08 5.38 s-5.08 -1.94 -5.08 -5.38 l0 -8.92 l1.66 0 l0 8.92 c0 2.62 1.56 3.8 3.42 3.8 s3.42 -1.18 3.42 -3.8 l0 -8.92 z M35.08 20 l-1.8 0 l-3.54 -5.04 l-0.38 0 l-2.9 0 l0 5.04 l-1.66 0 l0 -14 l4.56 0 c3.14 0 4.96 1.92 4.96 4.52 c0 2 -1.08 3.56 -3 4.16 z M26.46 7.5600000000000005 l0 5.92 l2.86 0 c2.02 0 3.34 -1.04 3.34 -2.96 c0 -1.94 -1.32 -2.96 -3.34 -2.96 l-2.86 0 z M46.04 20 l-5.42 -6.54 l-2.04 2.22 l0 4.32 l-1.7 0 l0 -14 l1.7 0 l0 7.5 l6.82 -7.5 l2.08 0 l-5.82 6.34 l6.34 7.66 l-1.96 0 z M51.36 18.44 l6.66 0 l0 1.56 l-7.06 0 l-1.26 0 l0 -14 l1.66 0 l6.48 0 l0 1.56 l-6.48 0 l0 4.64 l5.04 0 l0 1.52 l-5.04 0 l0 4.72 z M71.62 6 l-5.22 7.54 l0 6.46 l-1.66 0 l0 -6.46 l-5.22 -7.54 l1.9 0 l4.14 6.02 l4.16 -6.02 l1.9 0 z M89.7 20 l-1.8 0 l-3.54 -5.04 l-0.38 0 l-2.9 0 l0 5.04 l-1.66 0 l0 -14 l4.56 0 c3.14 0 4.96 1.92 4.96 4.52 c0 2 -1.08 3.56 -3 4.16 z M81.08 7.5600000000000005 l0 5.92 l2.86 0 c2.02 0 3.34 -1.04 3.34 -2.96 c0 -1.94 -1.32 -2.96 -3.34 -2.96 l-2.86 0 z M100 6 l1.66 0 l0 8.92 c0 3.44 -2.24 5.38 -5.08 5.38 s-5.08 -1.94 -5.08 -5.38 l0 -8.92 l1.66 0 l0 8.92 c0 2.62 1.56 3.8 3.42 3.8 s3.42 -1.18 3.42 -3.8 l0 -8.92 z M108.36 5.76 c2.18 0 3.78 1.44 4.38 2.94 l-1.26 0.68 c-0.64 -1.28 -1.66 -2.12 -3.12 -2.12 c-1.54 0 -2.6 0.88 -2.6 2.1 c0 1.14 0.72 1.86 2.24 2.44 l1.02 0.38 c2.52 0.94 4.1 2.02 4.1 4.24 c0 2.4 -2.3 3.88 -4.68 3.88 s-4.34 -1.44 -4.88 -3.44 l1.34 -0.64 c0.48 1.48 1.74 2.56 3.54 2.56 c1.6 0 2.96 -0.92 2.96 -2.34 c0 -1.6 -1.12 -2.2 -2.78 -2.84 l-1.04 -0.4 c-2.12 -0.8 -3.48 -1.9 -3.48 -3.88 c0 -2.04 1.8 -3.56 4.26 -3.56 z"></path></g></svg>